<?xml version="1.0" encoding="utf-8"?>
<!-- Generator: Adobe Illustrator 17.0.0, SVG Export Plug-In . SVG Version: 6.00 Build 0)  -->
<!DOCTYPE svg PUBLIC "-//W3C//DTD SVG 1.1//EN" "http://www.w3.org/Graphics/SVG/1.1/DTD/svg11.dtd">
<svg version="1.1" id="Layer_1" xmlns="http://www.w3.org/2000/svg" xmlns:xlink="http://www.w3.org/1999/xlink" x="0px" y="0px"
	 width="50px" height="50px" viewBox="0 0 50 50" enable-background="new 0 0 50 50" xml:space="preserve">
<g id="_x31_">
	<path fill="#FFFFFF" d="M6.01,29.657l15.375-15.375l6,6l6.687-6.688l-3.75-3.688h12.125v12.125l-4-3.938l-11,10.938l-6-5.938
		c0,0-11.558,11.686-12.04,12.135C7.177,32.698,6.01,29.657,6.01,29.657z"/>
	<path fill="#FFFFFF" d="M30.157,42.024c-4.522,1.278-9.522,0.042-9.522,0.042v-15.16l6.75,6.125l2.774-2.719
		C30.16,30.312,30.157,39.899,30.157,42.024z"/>
	<path fill="#FFFFFF" d="M42.448,33.658c-3.625,5.436-9.875,7.642-9.875,7.642V28.302l6.521-6.583l3.354,3.375
		C42.448,25.094,42.448,30.972,42.448,33.658z"/>
	<path fill="#FFFFFF" d="M11.705,37.54l6.725-7.228c0,0,0,10.138,0,11.116C15.135,40.406,11.705,37.54,11.705,37.54z"/>
</g>
</svg>
