<?xml version="1.0" encoding="utf-8"?>
<!-- Generator: Adobe Illustrator 17.0.0, SVG Export Plug-In . SVG Version: 6.00 Build 0)  -->
<!DOCTYPE svg PUBLIC "-//W3C//DTD SVG 1.1//EN" "http://www.w3.org/Graphics/SVG/1.1/DTD/svg11.dtd">
<svg version="1.1" xmlns="http://www.w3.org/2000/svg" xmlns:xlink="http://www.w3.org/1999/xlink" x="0px" y="0px" width="50px"
	 height="50.667px" viewBox="0 0 50 50.667" enable-background="new 0 0 50 50.667" xml:space="preserve">
<g id="Layer_4">
</g>
<g id="_x33_">
	<g>
		<g>
			<path fill-rule="evenodd" clip-rule="evenodd" d="M26.507,16.295h-3.014v7.531h-7.532v3.014h7.532v7.531h3.014V26.84h7.531
				v-3.014h-7.531V16.295z M25,5.75c-10.816,0-19.583,8.767-19.583,19.583S14.184,44.916,25,44.916s19.583-8.767,19.583-19.583
				S35.816,5.75,25,5.75z M25,41.903c-9.152,0-16.57-7.418-16.57-16.57c0-9.152,7.418-16.57,16.57-16.57
				c9.152,0,16.571,7.418,16.571,16.57C41.571,34.485,34.152,41.903,25,41.903z"/>
		</g>
	</g>
</g>
</svg>
