<?xml version="1.0" encoding="utf-8"?>
<!-- Generator: Adobe Illustrator 17.0.0, SVG Export Plug-In . SVG Version: 6.00 Build 0)  -->
<!DOCTYPE svg PUBLIC "-//W3C//DTD SVG 1.1//EN" "http://www.w3.org/Graphics/SVG/1.1/DTD/svg11.dtd">
<svg version="1.1" xmlns="http://www.w3.org/2000/svg" xmlns:xlink="http://www.w3.org/1999/xlink" x="0px" y="0px" width="50.25px"
	 height="50.25px" viewBox="0 0 50.25 50.25" enable-background="new 0 0 50.25 50.25" xml:space="preserve">
<g id="Layer_4">
</g>
<g id="_x37_">
	<path fill="#FFFFFF" d="M36.066,12.173c-5.252,0-10.8,7.309-10.8,7.309s-4.659-7.309-10.8-7.309c-6.168,0-11.169,5-11.169,11.169
		s5,11.169,11.169,11.169c5.054,0,10.8-7.309,10.8-7.309s5.297,7.309,10.8,7.309c6.168,0,11.169-5,11.169-11.169
		S42.234,12.173,36.066,12.173z M14.466,29.741c-3.535,0-6.4-2.865-6.4-6.4s2.865-6.4,6.4-6.4s8.408,6.4,8.408,6.4
		S18,29.741,14.466,29.741z M36.066,29.741c-3.535,0-8.408-6.4-8.408-6.4s4.873-6.4,8.408-6.4c3.535,0,6.4,2.865,6.4,6.4
		S39.6,29.741,36.066,29.741z"/>
</g>
</svg>
