<?xml version="1.0" encoding="utf-8"?>
<!-- Generator: Adobe Illustrator 17.0.0, SVG Export Plug-In . SVG Version: 6.00 Build 0)  -->
<!DOCTYPE svg PUBLIC "-//W3C//DTD SVG 1.1//EN" "http://www.w3.org/Graphics/SVG/1.1/DTD/svg11.dtd">
<svg version="1.1" xmlns="http://www.w3.org/2000/svg" xmlns:xlink="http://www.w3.org/1999/xlink" x="0px" y="0px" width="50px"
	 height="50.667px" viewBox="0 0 50 50.667" enable-background="new 0 0 50 50.667" xml:space="preserve">
<g id="Layer_4">
</g>
<g id="_x33_">
	<path fill-rule="evenodd" clip-rule="evenodd" d="M30.745,14.1c0.183-0.488,0.372-0.998,0.747-1.349
		c0.275-0.258,0.712-0.549,1.244-0.349c0.737,0.277,0.811,0.556,0.744,1.061c-0.021,0.156-0.065,0.331-0.116,0.496
		c-0.954,3.072-1.918,6.14-2.891,9.243c-1.025-0.177-1.863-0.322-2.877-0.498C28.67,19.754,29.686,16.919,30.745,14.1z
		 M20.026,11.725c0.711-0.122,0.966,0.143,1.231,0.493c0.202,0.266,0.246,0.476,0.337,0.721c1.16,3.127,2.308,6.259,3.514,9.538
		c-1.094,0-2.235-0.143-3.006,0.272c-0.85-2.834-1.9-6.149-2.804-9.197c-0.066-0.221-0.119-0.488-0.118-0.697
		C19.183,12.338,19.315,11.846,20.026,11.725z M18.724,25.074c0.657-0.462,1.323-0.34,2.081,0.527
		c1.507,1.725,2.398,3.783,3.063,5.949c0.026,0.084,0.026,0.175,0.035,0.238c-0.023,0.823-0.806,1.325-1.509,0.905
		c-0.575-0.343-1.154-0.772-1.554-1.298c-0.963-1.265-1.895-2.567-2.698-3.937C17.552,26.449,17.824,25.707,18.724,25.074z
		 M30.655,37.416c-4.56,4.537-12.191,3.248-14.958-2.552c-0.383-0.803-0.642-1.758-0.616-2.633c0.021-0.691,0.458-1.451,0.907-2.027
		c0.525-0.673,1.286-0.694,1.851-0.044c1.043,1.2,1.99,2.487,2.913,3.784c0.172,0.242,0.189,0.834,0.015,1.025
		c-0.23,0.252-0.771,0.44-1.086,0.346c-0.541-0.161-1.082-0.487-1.493-0.88c-0.595-0.57-1.073-1.261-1.754-2.085
		c-0.204,0.424-0.182,0.718-0.16,1.003c0.131,1.655,2.517,3.727,4.182,3.659c1.334-0.054,2.051-0.954,2.038-2.614
		c0.291,0.29,1.018,0.26,1.248-0.091c0.281,1.445,0.423,4.282,2.196,3.975c0.6-0.079-0.135-0.909-0.238-1.257
		c-0.927-3.107,0.261-5.843,3.193-7.292c0.53-0.262,1.113-0.424,1.621-0.72c0.303-0.178,0.801-0.292,0.754-0.799
		c-0.087-0.482-0.682-0.524-1.046-0.561c-1.177-0.119-2.371-0.078-3.546-0.203c-0.787-0.084-1.593-0.252-2.317-0.557
		c-0.509-0.215-1.027-0.644-1.307-1.117c-0.693-1.17-0.144-2.054,1.209-2.06c2.568-0.012,5.074,0.358,7.505,1.218
		c1.213,0.429,1.923,1.208,2.053,2.511C34.195,31.226,33.435,34.649,30.655,37.416z M24.256,28.524
		c0.902,0.32,1.926,0.587,2.994,0.535c-0.816,0.527-1.483,1.091-2.031,1.918C24.995,30.075,24.669,29.348,24.256,28.524z"/>
</g>
</svg>
