<?xml version="1.0" encoding="utf-8"?>
<!-- Generator: Adobe Illustrator 17.0.0, SVG Export Plug-In . SVG Version: 6.00 Build 0)  -->
<!DOCTYPE svg PUBLIC "-//W3C//DTD SVG 1.1//EN" "http://www.w3.org/Graphics/SVG/1.1/DTD/svg11.dtd">
<svg version="1.1" id="Layer_3" xmlns="http://www.w3.org/2000/svg" xmlns:xlink="http://www.w3.org/1999/xlink" x="0px" y="0px"
	 width="74.667px" height="70.334px" viewBox="0 0 74.667 70.334" enable-background="new 0 0 74.667 70.334" xml:space="preserve">
<g>
	<path fill="#231F20" d="M38.004,63.073c-5.989,0-11.846-1.945-16.635-5.501l-9.662,4.496c-0.803,0.374-1.749,0.198-2.363-0.434
		c-0.615-0.633-0.764-1.585-0.369-2.374l4.973-9.956c-2.521-4.281-3.85-9.144-3.85-14.138c0-15.388,12.519-27.906,27.906-27.906
		s27.907,12.519,27.907,27.906S53.392,63.073,38.004,63.073z M21.644,53.08c0.471,0,0.937,0.16,1.315,0.47
		c4.229,3.465,9.571,5.373,15.045,5.373c13.1,0,23.757-10.656,23.757-23.756S51.104,11.411,38.004,11.411
		S14.248,22.067,14.248,35.167c0,4.593,1.318,9.054,3.813,12.901c0.399,0.616,0.443,1.398,0.115,2.056l-2.835,5.675l5.426-2.524
		C21.048,53.144,21.347,53.08,21.644,53.08z"/>
</g>
</svg>
