<?xml version="1.0" encoding="utf-8"?>
<!-- Generator: Adobe Illustrator 17.0.0, SVG Export Plug-In . SVG Version: 6.00 Build 0)  -->
<!DOCTYPE svg PUBLIC "-//W3C//DTD SVG 1.1//EN" "http://www.w3.org/Graphics/SVG/1.1/DTD/svg11.dtd">
<svg version="1.1" id="Layer_1" xmlns="http://www.w3.org/2000/svg" xmlns:xlink="http://www.w3.org/1999/xlink" x="0px" y="0px"
	 width="50.5px" height="50.667px" viewBox="0 0 50.5 50.667" enable-background="new 0 0 50.5 50.667" xml:space="preserve">
<g id="_x35_">
	<polygon fill="#FFFFFF" points="14.178,37.667 14.178,30.083 27.387,30.083 	"/>
	<path fill="#FFFFFF" d="M44.116,18.542c0-0.806-0.007-4.418-4.131-4.493l-0.076,14.213c0,0.721,0.561,6.063-6.483,6.063h-5.372
		v0.009H26.22l10.125,6.708v-5.958l2.651-0.125c5.495,0,5.057-4.167,5.057-4.729L44.116,18.542z"/>
	<path fill="#FFFFFF" d="M36.032,15.25c0-0.815,0-4.5-4.255-4.5H12.532c-4.812,0-4.562,4.312-4.562,5.543v10.43
		c0,4.944,4.167,4.944,5.125,4.944h17.818c5.495,0,5.057-4.167,5.057-4.729L36.032,15.25z M15.928,22.958
		c-1.082,0-1.958-0.877-1.958-1.958s0.877-1.958,1.958-1.958c1.082,0,1.958,0.877,1.958,1.958S17.01,22.958,15.928,22.958z
		 M22,22.958c-1.082,0-1.958-0.877-1.958-1.958s0.877-1.958,1.958-1.958s1.958,0.877,1.958,1.958S23.082,22.958,22,22.958z
		 M27.958,22.958C26.877,22.958,26,22.082,26,21s0.877-1.958,1.958-1.958s1.958,0.877,1.958,1.958S29.04,22.958,27.958,22.958z"/>
</g>
</svg>
