<?xml version="1.0" encoding="utf-8"?>
<!-- Generator: Adobe Illustrator 17.0.0, SVG Export Plug-In . SVG Version: 6.00 Build 0)  -->
<!DOCTYPE svg PUBLIC "-//W3C//DTD SVG 1.1//EN" "http://www.w3.org/Graphics/SVG/1.1/DTD/svg11.dtd">
<svg version="1.1" id="Layer_1" xmlns="http://www.w3.org/2000/svg" xmlns:xlink="http://www.w3.org/1999/xlink" x="0px" y="0px"
	 width="50.25px" height="50.25px" viewBox="0 0 50.25 50.25" enable-background="new 0 0 50.25 50.25" xml:space="preserve">
<g id="_x31_">
</g>
<g id="_x32_">
</g>
<g id="_x33_">
</g>
<g id="_x34_">
	<ellipse fill="#FFFFFF" cx="24.974" cy="20.292" rx="6.792" ry="9.292"/>
	<ellipse fill="#FFFFFF" cx="10.798" cy="18.661" rx="3.781" ry="5.172"/>
	<path fill="#FFFFFF" d="M28.281,29.87l-1.93,3.653l-2.481-0.002l-2.367-3.58c-7.319,1.442-12.1,6.83-12.1,6.83
		s5.176,5.198,12.602,6.333l1.781-8.771l2.668-0.008l1.63,8.7c7.084-1.328,11.681-6.525,11.681-6.525S35.588,31.171,28.281,29.87z"
		/>
	<path fill="#FFFFFF" d="M3.234,26.708c1.875-2.156,6.168-2.578,6.168-2.578v-0.665l3.015-0.132l-0.011,0.828
		c0,0,2.734,0.984,4.078,2.391c-0.335,0.196-6.781,3.438-9.844,6.719C4.047,30.583,3.516,27.615,3.234,26.708z"/>
	<ellipse fill="#FFFFFF" cx="39.389" cy="19.068" rx="3.781" ry="5.172"/>
	<path fill="#FFFFFF" d="M47.077,27.115c-1.875-2.156-6.168-2.578-6.168-2.578v-0.665l-3.015-0.132l0.011,0.828
		c0,0-2.734,0.984-4.078,2.391c0.335,0.196,6.781,3.438,9.844,6.719C46.264,30.99,46.795,28.021,47.077,27.115z"/>
</g>
<g id="_x35_">
</g>
<g id="_x36_">
</g>
<g id="_x37_">
</g>
</svg>
