<?xml version="1.0" encoding="utf-8"?>
<!-- Generator: Adobe Illustrator 17.0.0, SVG Export Plug-In . SVG Version: 6.00 Build 0)  -->
<!DOCTYPE svg PUBLIC "-//W3C//DTD SVG 1.1//EN" "http://www.w3.org/Graphics/SVG/1.1/DTD/svg11.dtd">
<svg version="1.1" xmlns="http://www.w3.org/2000/svg" xmlns:xlink="http://www.w3.org/1999/xlink" x="0px" y="0px" width="50px"
	 height="50.667px" viewBox="0 0 50 50.667" enable-background="new 0 0 50 50.667" xml:space="preserve">
<g id="Layer_4">
</g>
<g id="_x33_">
	<g>
		<path fill-rule="evenodd" clip-rule="evenodd" d="M17.934,15.812c0.518,0.117,1.047,0.199,1.552,0.358
			c2.65,0.833,4.418,2.495,4.915,5.323c0.009,0.053,0.001,0.11,0.001,0.252c-0.498,0-0.986,0.02-1.47-0.015
			c-0.111-0.008-0.262-0.188-0.303-0.318c-0.803-2.567-2.598-3.925-5.225-4.073c-2.72-0.153-4.875,0.966-6.1,3.442
			c-1.515,3.064-1.5,6.218,0.076,9.255c1.856,3.578,6.671,4.475,9.528,1.847c1.109-1.02,1.693-2.333,1.962-3.798
			c0.031-0.168,0.062-0.335,0.1-0.54c0.575,0,1.133,0,1.694,0c-0.254,3.453-2.458,6.833-6.575,7.217
			c-0.13,0.012-0.256,0.061-0.384,0.093c-0.421,0-0.841,0-1.262,0c-0.166-0.035-0.331-0.083-0.499-0.102
			c-2.646-0.296-4.74-1.539-6.026-3.864c-1.925-3.482-1.929-7.099-0.245-10.672c1.014-2.152,2.777-3.508,5.088-4.115
			c0.477-0.125,0.968-0.195,1.452-0.291C16.787,15.812,17.36,15.812,17.934,15.812z"/>
		<path fill-rule="evenodd" clip-rule="evenodd" d="M38.178,24.627c2.884,1.21,4.009,3.666,3.042,6.481
			c-0.613,1.785-2.027,2.627-3.732,3.036c-0.883,0.212-1.81,0.309-2.72,0.323c-2.655,0.041-5.311,0.015-7.967,0.013
			c-0.11,0-0.22-0.023-0.357-0.038c0-6.058,0-12.087,0-18.141c0.074-0.023,0.143-0.062,0.211-0.062
			c3.19,0.007,6.38-0.002,9.57,0.047c0.596,0.009,1.212,0.184,1.777,0.396c1.565,0.587,2.485,1.708,2.649,3.409
			c0.18,1.86-0.403,3.342-2.077,4.303C38.462,24.457,38.352,24.524,38.178,24.627z M29.633,31.863c1.652,0,3.234,0.008,4.815-0.004
			c0.552-0.004,1.111-0.013,1.653-0.102c1.368-0.223,2.155-1.218,2.208-2.717c0.049-1.381-0.673-2.417-1.95-2.74
			c-0.385-0.097-0.791-0.144-1.189-0.148c-1.699-0.016-3.398-0.008-5.097-0.005c-0.144,0-0.289,0.03-0.44,0.048
			C29.633,28.09,29.633,29.936,29.633,31.863z M29.637,23.828c1.909,0,3.778,0.059,5.641-0.022c1.157-0.05,1.989-0.889,2.156-1.892
			c0.329-1.976-0.571-3.058-2.569-3.075c-1.222-0.01-2.444-0.002-3.666-0.002c-0.511,0-1.022,0-1.562,0
			C29.637,20.526,29.637,22.143,29.637,23.828z"/>
	</g>
</g>
</svg>
