<?xml version="1.0" encoding="utf-8"?>
<!-- Generator: Adobe Illustrator 17.0.0, SVG Export Plug-In . SVG Version: 6.00 Build 0)  -->
<!DOCTYPE svg PUBLIC "-//W3C//DTD SVG 1.1//EN" "http://www.w3.org/Graphics/SVG/1.1/DTD/svg11.dtd">
<svg version="1.1" id="_x35_" xmlns="http://www.w3.org/2000/svg" xmlns:xlink="http://www.w3.org/1999/xlink" x="0px" y="0px"
	 width="49.75px" height="50px" viewBox="0 0 49.75 50" enable-background="new 0 0 49.75 50" xml:space="preserve">
<path fill="#FFFFFF" d="M25.208,4.458c-11.552,0-20.917,9.365-20.917,20.917c0,11.552,9.365,20.917,20.917,20.917
	s20.917-9.365,20.917-20.917C46.125,13.823,36.76,4.458,25.208,4.458z M25.208,40.542c-8.376,0-15.167-6.79-15.167-15.167
	c0-8.376,6.79-15.167,15.167-15.167s15.167,6.79,15.167,15.167C40.375,33.751,33.585,40.542,25.208,40.542z"/>
<g>
	<path fill="#FFFFFF" d="M16.728,32.879l2.214-3.362c2.337,1.764,4.879,2.665,7.093,2.665c2.132,0,3.362-0.901,3.362-2.337v-0.082
		c0-1.681-2.296-2.255-4.838-3.034c-3.198-0.901-6.765-2.214-6.765-6.354v-0.082c0-4.101,3.403-6.602,7.708-6.602
		c2.706,0,5.658,0.943,7.954,2.46l-1.968,3.526c-2.091-1.271-4.305-2.05-6.109-2.05c-1.927,0-3.034,0.902-3.034,2.173v0.082
		c0,1.558,2.337,2.214,4.879,3.034c3.157,0.983,6.724,2.419,6.724,6.313v0.082c0,4.552-3.526,6.807-8.036,6.807
		C22.837,36.119,19.434,35.011,16.728,32.879z"/>
</g>
<rect x="24.708" y="12.625" fill="#FFFFFF" width="2.083" height="26.083"/>
</svg>
