<?xml version="1.0" encoding="utf-8"?>
<!-- Generator: Adobe Illustrator 17.0.0, SVG Export Plug-In . SVG Version: 6.00 Build 0)  -->
<!DOCTYPE svg PUBLIC "-//W3C//DTD SVG 1.1//EN" "http://www.w3.org/Graphics/SVG/1.1/DTD/svg11.dtd">
<svg version="1.1" xmlns="http://www.w3.org/2000/svg" xmlns:xlink="http://www.w3.org/1999/xlink" x="0px" y="0px" width="50px"
	 height="50px" viewBox="0 0 50 50" enable-background="new 0 0 50 50" xml:space="preserve">
<g id="Layer_4">
</g>
<g id="_x37_">
	<g>
		<g>
			<g>
				<path fill-rule="evenodd" clip-rule="evenodd" fill="#FFFFFF" d="M25.04,1.446c-7.715,0-13.969,6.173-13.969,13.788
					c0,7.615,13.969,33.321,13.969,33.321s13.97-25.706,13.97-33.321C39.009,7.619,32.755,1.446,25.04,1.446z M25.04,19.83
					c-2.572,0-4.656-2.058-4.656-4.596c0-2.538,2.085-4.596,4.656-4.596c2.572,0,4.656,2.058,4.656,4.596
					C29.696,17.772,27.612,19.83,25.04,19.83z M9.55,37.952l1.607,9.118l7.806-6.847l-4.029-9.577L9.55,37.952z M35.065,30.645
					l-4.029,9.577l7.806,6.847l1.607-9.118L35.065,30.645z"/>
			</g>
		</g>
	</g>
</g>
</svg>
