<?xml version="1.0" encoding="utf-8"?>
<!-- Generator: Adobe Illustrator 17.0.0, SVG Export Plug-In . SVG Version: 6.00 Build 0)  -->
<!DOCTYPE svg PUBLIC "-//W3C//DTD SVG 1.1//EN" "http://www.w3.org/Graphics/SVG/1.1/DTD/svg11.dtd">
<svg version="1.1" xmlns="http://www.w3.org/2000/svg" xmlns:xlink="http://www.w3.org/1999/xlink" x="0px" y="0px" width="50px"
	 height="50.667px" viewBox="0 0 50 50.667" enable-background="new 0 0 50 50.667" xml:space="preserve">
<g id="Layer_4">
</g>
<g id="_x33_">
	<g>
		<path fill="#FFFFFF" d="M44.654,21.279l-7.23-0.056l5.152-5.073l-6.841-6.947l-5.243,5.163V7.007h-9.75v7.101l-4.982-5.06
			l-6.947,6.841l5.073,5.152l-7.231-0.056l-0.075,9.75l7.231,0.056l-5.152,5.073l6.841,6.947l5.243-5.163v7.358h9.75v-7.101
			l4.982,5.06l6.947-6.841l-5.073-5.152l7.23,0.056L44.654,21.279z M25.616,35.007c-4.994,0-9.042-4.048-9.042-9.042
			c0-4.994,4.048-9.042,9.042-9.042c4.994,0,9.042,4.048,9.042,9.042C34.658,30.959,30.61,35.007,25.616,35.007z"/>
		<circle fill="#FFFFFF" cx="25.658" cy="26.007" r="5.167"/>
	</g>
</g>
</svg>
