<?xml version="1.0" encoding="utf-8"?>
<!-- Generator: Adobe Illustrator 17.0.0, SVG Export Plug-In . SVG Version: 6.00 Build 0)  -->
<!DOCTYPE svg PUBLIC "-//W3C//DTD SVG 1.1//EN" "http://www.w3.org/Graphics/SVG/1.1/DTD/svg11.dtd">
<svg version="1.1" id="Layer_1" xmlns="http://www.w3.org/2000/svg" xmlns:xlink="http://www.w3.org/1999/xlink" x="0px" y="0px"
	 width="49.333px" height="50px" viewBox="0 0 49.333 50" enable-background="new 0 0 49.333 50" xml:space="preserve">
<g id="_x32_">
	<path fill="#FFFFFF" d="M24.125,5.5c-1.657,0-3,1.343-3,3v18h0.044c0.213,1.448,1.449,2.562,2.956,2.562s2.743-1.115,2.956-2.562
		h0.044v-18C27.125,6.843,25.782,5.5,24.125,5.5z"/>
	<path fill="#FFFFFF" d="M30.75,8.199v6.769c3.908,2.284,6.542,6.512,6.542,11.366c0,7.272-5.895,13.167-13.167,13.167
		s-13.167-5.895-13.167-13.167c0-4.696,2.466-8.807,6.167-11.138v-6.86C9.994,11.135,4.937,18.064,4.937,26.188
		c0,10.597,8.591,19.188,19.188,19.188s19.187-8.591,19.187-19.188C43.312,17.923,38.077,10.899,30.75,8.199z"/>
</g>
</svg>
