<?xml version="1.0" encoding="utf-8"?>
<!-- Generator: Adobe Illustrator 17.0.0, SVG Export Plug-In . SVG Version: 6.00 Build 0)  -->
<!DOCTYPE svg PUBLIC "-//W3C//DTD SVG 1.1//EN" "http://www.w3.org/Graphics/SVG/1.1/DTD/svg11.dtd">
<svg version="1.1" xmlns="http://www.w3.org/2000/svg" xmlns:xlink="http://www.w3.org/1999/xlink" x="0px" y="0px" width="50px"
	 height="50.667px" viewBox="0 0 50 50.667" enable-background="new 0 0 50 50.667" xml:space="preserve">
<g id="Layer_4">
</g>
<g id="_x33_">
	<g>
		<g>
			<path fill-rule="evenodd" clip-rule="evenodd" d="M25,5.084c-11.184,0-20.249,9.066-20.249,20.249
				c0,11.184,9.066,20.249,20.249,20.249c11.184,0,20.249-9.066,20.249-20.249C45.249,14.15,36.184,5.084,25,5.084z M32.032,30.229
				L30.429,32.9l7.002,4.202c-3.123,3.298-7.531,5.366-12.432,5.366c-4.904,0-9.315-2.071-12.438-5.373l7.142-4.285l-1.868-2.492
				l-7.208,4.325c-1.741-2.682-2.762-5.874-2.762-9.309C7.866,15.87,15.537,8.2,25,8.2c9.463,0,17.134,7.671,17.134,17.134
				c0,3.432-1.02,6.622-2.757,9.302L32.032,30.229z M25,14.43c-6.151,0-7.788,4.185-7.788,9.346s3.486,9.346,7.788,9.346
				s7.789-4.185,7.789-9.346S31.102,14.43,25,14.43z M25,30.006c-2.579,0-4.673-2.79-4.673-6.23c0-0.821,0.055-1.604,0.186-2.322
				C22.438,21.434,25,20.66,25,20.66s0.568,0.48-0.713,1.456c2.07,0.101,4.399-0.218,5.141-0.948
				c0.174,0.794,0.245,1.675,0.245,2.608C29.673,27.217,27.58,30.006,25,30.006z"/>
		</g>
	</g>
</g>
</svg>
